<?xml version="1.0" encoding="UTF-8" standalone="no"?>
<!DOCTYPE svg PUBLIC "-//W3C//DTD SVG 1.1//EN" "http://www.w3.org/Graphics/SVG/1.1/DTD/svg11.dtd"><svg width="100%"
  height="100%" viewBox="0 0 319 440" version="1.1" xmlns="http://www.w3.org/2000/svg"
  xmlns:xlink="http://www.w3.org/1999/xlink" xml:space="preserve" xmlns:serif="http://www.serif.com/"
  style="fill-rule:evenodd;clip-rule:evenodd;stroke-linejoin:round;stroke-miterlimit:1.41421;">
  <path id="Face"
    d="M5.054,82.946c-9.72,48.602 -1.215,71.08 2.43,108.746c3.645,37.666 10.935,114.821 17.011,128.794c6.075,13.973 17.01,20.656 24.908,28.553c7.897,7.898 43.741,55.892 65.612,72.295c21.87,16.403 25.515,18.225 46.779,18.225c21.263,0 35.236,-8.505 62.574,-35.843c27.338,-27.338 66.827,-71.687 74.725,-100.848c7.897,-29.161 13.973,-112.391 17.618,-137.299c3.645,-24.908 7.859,-161.152 -52.286,-164.797c-60.144,-3.645 -48.319,10.192 -98.136,10.192c-49.816,0 -67.983,-7.878 -98.967,-10.308c-30.983,-2.431 -52.548,33.689 -62.268,82.29Z"
    style="fill:#9c8a8a;" />
  <clipPath id="_clip1">
    <path
      d="M5.054,82.946c-9.72,48.602 -1.215,71.08 2.43,108.746c3.645,37.666 10.935,114.821 17.011,128.794c6.075,13.973 17.01,20.656 24.908,28.553c7.897,7.898 43.741,55.892 65.612,72.295c21.87,16.403 25.515,18.225 46.779,18.225c21.263,0 35.236,-8.505 62.574,-35.843c27.338,-27.338 66.827,-71.687 74.725,-100.848c7.897,-29.161 13.973,-112.391 17.618,-137.299c3.645,-24.908 7.859,-161.152 -52.286,-164.797c-60.144,-3.645 -48.319,10.192 -98.136,10.192c-49.816,0 -67.983,-7.878 -98.967,-10.308c-30.983,-2.431 -52.548,33.689 -62.268,82.29Z" />
  </clipPath>
  <g clipPath="url(#_clip1)">
    <path id="FaceFrame"
      d="M62.109,17.163c-17.011,5.467 -26.731,23.693 -32.199,41.311c-5.467,17.618 3.645,25.516 2.43,44.349c-1.215,18.833 -18.225,37.058 -15.188,47.386l3.038,10.328c0,0 -8.505,43.741 4.253,61.966c12.757,18.226 6.075,80.8 14.58,94.773c8.505,13.973 73.509,111.175 112.391,110.568c38.881,-0.608 92.342,-53.462 109.96,-71.08c17.618,-17.618 27.338,-43.133 34.628,-69.864c7.291,-26.731 19.441,-120.896 15.188,-163.422c-4.252,-42.526 -12.15,-106.315 -41.918,-109.353c-29.769,-3.037 -75.94,22.478 -113.606,21.263c-37.666,-1.215 -76.547,-23.693 -93.557,-18.225Z"
      style="fill:#b09e9e;" />
    <clipPath id="_clip2">
      <path
        d="M62.109,17.163c-17.011,5.467 -26.731,23.693 -32.199,41.311c-5.467,17.618 3.645,25.516 2.43,44.349c-1.215,18.833 -18.225,37.058 -15.188,47.386l3.038,10.328c0,0 -8.505,43.741 4.253,61.966c12.757,18.226 6.075,80.8 14.58,94.773c8.505,13.973 73.509,111.175 112.391,110.568c38.881,-0.608 92.342,-53.462 109.96,-71.08c17.618,-17.618 27.338,-43.133 34.628,-69.864c7.291,-26.731 19.441,-120.896 15.188,-163.422c-4.252,-42.526 -12.15,-106.315 -41.918,-109.353c-29.769,-3.037 -75.94,22.478 -113.606,21.263c-37.666,-1.215 -76.547,-23.693 -93.557,-18.225Z" />
    </clipPath>
    <g clipPath="url(#_clip2)">
      <path id="EyeShadowRight"
        d="M276.909,166.946c12.672,17.933 3.635,40.81 -7.403,51.51c-11.037,10.7 -43.963,26.128 -63.159,10.202c-19.196,-15.926 -23.755,-17.17 -23.995,-29.114c-0.14,-6.984 9.114,-19.047 41.209,-30.358c20.475,-7.217 45.437,-13.436 53.348,-2.24Z" />
      <clipPath id="_clip3">
        <path
          d="M276.909,166.946c12.672,17.933 3.635,40.81 -7.403,51.51c-11.037,10.7 -43.963,26.128 -63.159,10.202c-19.196,-15.926 -23.755,-17.17 -23.995,-29.114c-0.14,-6.984 9.114,-19.047 41.209,-30.358c20.475,-7.217 45.437,-13.436 53.348,-2.24Z" />
      </clipPath>
      <g clipPath="url(#_clip3)">
        <path id="EyeFrame"
          d="M260.321,188.643c0,0 -11.011,-7.963 -30.031,-6.967c-19.019,0.995 -34.285,10.202 -33.284,13.686c1.001,3.484 4.004,1.742 8.259,3.235c4.254,1.493 16.016,8.709 28.278,6.718c12.263,-1.99 26.027,-8.46 26.778,-16.672Z"
          style="fill:#fff;" />
        <clipPath id="_clip4">
          <path
            d="M260.321,188.643c0,0 -11.011,-7.963 -30.031,-6.967c-19.019,0.995 -34.285,10.202 -33.284,13.686c1.001,3.484 4.004,1.742 8.259,3.235c4.254,1.493 16.016,8.709 28.278,6.718c12.263,-1.99 26.027,-8.46 26.778,-16.672Z" />
        </clipPath>
        <g clipPath="url(#_clip4)">
          <ellipse id="EyeBall" cx="230.938" cy="186.64" rx="14.684" ry="14.601" style="fill:#272727;" />
          <clipPath id="_clip5">
            <ellipse cx="230.938" cy="186.64" rx="14.684" ry="14.601" />
          </clipPath>
          <g clipPath="url(#_clip5)">
            <ellipse cx="230.938" cy="186.64" rx="8.79" ry="8.74" />
            <ellipse cx="222.513" cy="186.563" rx="2.076" ry="2.064" style="fill:#fff;" />
          </g>
        </g>
      </g>
      <path id="EyeShadowLeft"
        d="M48.722,178.393c-15.676,15.925 -9.704,40.312 1.742,51.012c11.447,10.7 44.045,13.686 63.952,-2.24c19.907,-15.926 24.635,-17.17 24.884,-29.114c0.145,-6.984 -9.715,-18.887 -44.542,-24.386c-18.912,-2.986 -30.606,-10.947 -46.036,4.728Z" />
      <clipPath id="_clip6">
        <path
          d="M48.722,178.393c-15.676,15.925 -9.704,40.312 1.742,51.012c11.447,10.7 44.045,13.686 63.952,-2.24c19.907,-15.926 24.635,-17.17 24.884,-29.114c0.145,-6.984 -9.715,-18.887 -44.542,-24.386c-18.912,-2.986 -30.606,-10.947 -46.036,4.728Z" />
      </clipPath>
      <g clipPath="url(#_clip6)">
        <path id="EyeFrame1" serif:id="EyeFrame"
          d="M67.471,191.365c0,0 10.948,-7.963 29.86,-6.968c18.912,0.996 34.091,10.203 33.096,13.687c-0.996,3.483 -3.982,1.741 -8.212,3.234c-4.23,1.493 -15.926,8.71 -28.119,6.719c-12.193,-1.991 -25.879,-8.46 -26.625,-16.672Z"
          style="fill:#fff;" />
        <clipPath id="_clip7">
          <path id="EyeFrame2" serif:id="EyeFrame"
            d="M67.471,191.365c0,0 10.948,-7.963 29.86,-6.968c18.912,0.996 34.091,10.203 33.096,13.687c-0.996,3.483 -3.982,1.741 -8.212,3.234c-4.23,1.493 -15.926,8.71 -28.119,6.719c-12.193,-1.991 -25.879,-8.46 -26.625,-16.672Z" />
        </clipPath>
        <g clipPath="url(#_clip7)">
          <circle id="EyeBall1" serif:id="EyeBall" cx="96.687" cy="189.361" r="14.601" style="fill:#272727;" />
          <clipPath id="_clip8">
            <circle cx="96.687" cy="189.361" r="14.601" />
          </clipPath>
          <g clipPath="url(#_clip8)">
            <circle cx="96.687" cy="189.361" r="8.74" />
            <circle cx="88.635" cy="188.488" r="2.064" style="fill:#fff;" />
          </g>
        </g>
      </g>
      <path id="Nose"
        d="M174.211,199.208c-0.498,8.212 1.244,18.663 4.976,26.377c3.733,7.714 7.714,8.958 8.71,22.395c0.995,13.438 3.483,17.668 5.972,20.405c2.488,2.737 11.198,7.963 11.446,15.926c0.249,7.963 -2.239,12.94 -10.451,13.935c-8.211,0.995 -15.179,8.709 -28.119,8.709c-12.939,0 -16.921,-6.967 -25.381,-8.709c-8.461,-1.742 -17.916,1.742 -20.156,-4.728c-2.24,-6.47 -6.47,-13.686 2.737,-19.409c9.207,-5.724 14.682,-12.194 15.926,-23.142c1.244,-10.949 1.493,-15.428 5.474,-26.129c3.982,-10.7 5.297,-20.974 5.972,-27.372c1.095,-10.376 17.121,-20.338 22.894,1.742"
        style="fill:url(#_Linear9);" />
      <clipPath id="_clip10">
        <path id="Nose1" serif:id="Nose"
          d="M174.211,199.208c-0.498,8.212 1.244,18.663 4.976,26.377c3.733,7.714 7.714,8.958 8.71,22.395c0.995,13.438 3.483,17.668 5.972,20.405c2.488,2.737 11.198,7.963 11.446,15.926c0.249,7.963 -2.239,12.94 -10.451,13.935c-8.211,0.995 -15.179,8.709 -28.119,8.709c-12.939,0 -16.921,-6.967 -25.381,-8.709c-8.461,-1.742 -17.916,1.742 -20.156,-4.728c-2.24,-6.47 -6.47,-13.686 2.737,-19.409c9.207,-5.724 14.682,-12.194 15.926,-23.142c1.244,-10.949 1.493,-15.428 5.474,-26.129c3.982,-10.7 5.297,-20.974 5.972,-27.372c1.095,-10.376 17.121,-20.338 22.894,1.742" />
      </clipPath>
      <g clipPath="url(#_clip10)">
        <path
          d="M143.826,293.734c12.74,6.285 22.557,6.809 22.253,-15.629c-0.304,-22.439 -1.566,-82.233 -6.965,-82.728c-4.932,-0.453 -5.436,3.228 -6.455,12.401c-1.019,9.173 -3.058,13.42 -2.548,26.33c0.51,12.911 -5.436,9.513 -6.965,18.686c-1.529,9.173 -1.189,14.949 -10.532,21.235c-9.343,6.285 -8.154,1.019 -10.023,10.362c-1.868,9.343 8.438,3.03 21.235,9.343Z"
          style="fill:#d5c3c3;fill-opacity:0.74;" />
      </g>
      <g id="Lip">
        <path
          d="M93.135,340.965c0,0 6.303,14.57 66.913,16.427c64.181,1.965 74.403,-15.46 74.403,-15.46c0,0 -46.442,7.204 -70.192,5.954c-23.75,-1.25 -71.124,-6.921 -71.124,-6.921Z" />
        <path id="BottomLip"
          d="M40.555,277.039c4.459,29.303 4.502,28.114 5.351,32.998c0.849,4.884 8.494,14.864 12.74,22.296c4.247,7.432 9.98,19.535 15.501,25.481c5.521,5.945 13.59,7.432 14.864,10.192c1.274,2.761 -2.76,-4.247 4.672,-5.733c7.432,-1.486 9.555,-4.034 19.323,1.486c9.767,5.521 8.281,0 23.357,1.911c15.077,1.912 21.022,11.255 30.79,11.255c9.768,0 30.577,-13.59 38.221,-14.015c7.645,-0.425 17.356,6.37 25.638,4.247c8.281,-2.123 14.864,-16.775 19.111,-20.809c4.246,-4.035 5.733,-11.255 10.404,-17.2c4.672,-5.946 18.262,-26.33 20.385,-33.55c2.123,-7.22 4.459,-19.748 5.309,-24.207c0.849,-4.459 -2.761,-3.397 -10.617,5.521c-7.857,8.918 -7.857,10.192 -10.83,21.446c-2.973,11.254 0,19.748 -9.131,18.049c-9.13,-1.698 -9.98,-7.432 -14.014,-7.856c-4.035,-0.425 -4.035,1.274 -4.035,1.274c0,0 0.213,1.486 3.186,4.247c2.972,2.76 8.281,6.37 6.582,14.227c-1.699,7.856 0.849,14.863 -6.582,13.165c-7.432,-1.699 -26.473,9.343 -52.166,9.768c-25.694,0.424 -45.866,1.486 -61.579,-1.699c-15.714,-3.185 -37.87,-6.491 -43.603,-15.834c-5.734,-9.343 6.187,-33.429 6.187,-33.429c0,0 -14.864,20.172 -26.542,12.103c-11.679,-8.069 -21.116,-38.865 -22.522,-35.334Z"
          style="fill:#701214;" />
        <path id="UpperLip"
          d="M93.041,340.968c0,0 42.545,-1.223 48.023,-1.216c10.546,0.013 16.361,1.438 21.797,1.438c5.436,0 13.296,-1.129 20.925,-1.205c19.693,-0.196 50.619,1.958 50.619,1.958c0,0 -26.036,11.455 -70.603,10.916c-42.129,-0.51 -70.761,-11.891 -70.761,-11.891Z"
          style="fill:#651416;" />
      </g>
      <g id="Choruk">
        <path
          d="M120.151,277.199c0,0 -6.519,6.838 -16.519,16.349c-2.5,2.378 -5.218,4.924 -8.107,7.571c-8.73,8.002 -17.007,10.646 -17.007,10.646c0,0 12.4,-13.169 19.657,-19.71c16.924,-15.257 21.976,-14.856 21.976,-14.856Z"
          style="fill-opacity:0.07;" />
        <path
          d="M202.968,277.264c0,0 9.801,10.995 23.711,24.821c8.41,8.359 16.592,11.347 16.592,11.347c0,0 -11.868,-13.675 -18.863,-20.514c-16.314,-15.949 -21.44,-15.654 -21.44,-15.654Z"
          style="fill-opacity:0.07;" />
      </g>
      <g id="ForeheadChoruks">
        <path
          d="M112.311,113.876c16.91,-3.382 26.211,-6.341 35.089,-3.382c8.878,2.96 14.796,6.342 14.796,6.342c0,0 -9.4,-3.912 -21.369,-3.735c-11.969,0.178 -45.426,4.157 -28.516,0.775Z"
          style="fill-opacity:0.2;" />
        <g>
          <path
            d="M203.1,129.454c16.91,-3.382 41.657,-8.356 50.535,-5.397c8.878,2.959 11.606,7.013 11.606,7.013c0,0 -20.313,-4.08 -32.282,-3.902c-11.969,0.177 -46.77,5.668 -29.859,2.286Z"
            style="fill-opacity:0.2;" />
          <path
            d="M197.968,129.618c21.04,-6.137 53.013,-12.798 64.059,-7.428c11.046,5.37 14.441,12.726 14.441,12.726c0,0 -25.274,-7.403 -40.166,-7.081c-14.892,0.322 -59.373,7.92 -38.334,1.783Z"
            style="fill-opacity:0.2;" />
        </g>
        <g>
          <path
            d="M197.561,88.277c-23.604,3.777 -42.66,6.501 -55.42,5.954c-15.594,-0.669 -31.555,-6.116 -31.555,-6.116c0,0 28.49,3.604 45.234,3.147c16.744,-0.458 65.345,-6.762 41.741,-2.985Z"
            style="fill-opacity:0.2;" />
          <path
            d="M200.238,88.427c-25.28,5.411 -45.691,9.299 -59.374,8.406c-16.723,-1.092 -33.872,-9.23 -33.872,-9.23c0,0 30.569,5.505 48.517,4.944c17.948,-0.562 70.01,-9.53 44.729,-4.12Z"
            style="fill-opacity:0.2;" />
        </g>
        <path
          d="M121.849,130.619c-22.757,4.748 -35.209,8.456 -47.439,6.222c-12.23,-2.234 -20.467,-5.13 -20.467,-5.13c0,0 12.996,3.142 29.236,1.995c16.24,-1.148 61.428,-7.835 38.67,-3.087Z"
          style="fill-opacity:0.2;" />
        <g>
          <path
            d="M242.821,102.763c-22.374,-1.594 -27.668,0.726 -36.543,6.391c-10.182,6.5 -17.918,5.713 -17.918,5.713c0,0 16.888,2.858 26.682,-3.804c8.642,-5.878 50.153,-6.706 27.779,-8.3Z"
            style="fill-opacity:0.2;" />
          <path
            d="M255.342,100.493c-29.573,-2.653 -36.535,0.717 -48.184,8.994c-13.365,9.497 -23.592,8.231 -23.592,8.231c0,0 22.344,4.455 35.193,-5.289c11.338,-8.597 66.157,-9.282 36.583,-11.936Z"
            style="fill-opacity:0.05;" />
        </g>
      </g>
      <path id="Forehead"
        d="M76.833,161.949c-17.669,-2.888 -18.8,-19.002 20.416,-20.821c39.217,-1.819 41.44,-5.054 59.633,-5.458c18.193,-0.404 65.495,1.819 81.263,2.426c15.767,0.606 25.874,12.735 1.01,19.204c-24.864,6.468 -60.441,32.343 -80.453,31.13c-20.013,-1.213 -60.846,-23.044 -81.869,-26.481Z"
        style="fill:#a49292;fill-opacity:0.49;" />
    </g>
  </g>
  <defs>
    <linearGradient id="_Linear9" x1="0" y1="0" x2="1" y2="0" gradientUnits="userSpaceOnUse"
      gradientTransform="matrix(1.55526,96.9433,-96.9433,1.55526,167.15,210.168)">
      <stop offset="0" style="stop-color:#b39f9f;stop-opacity:1" />
      <stop offset="0.53" style="stop-color:#aa9797;stop-opacity:1" />
      <stop offset="1" style="stop-color:#897d7d;stop-opacity:1" />
    </linearGradient>
  </defs>
</svg>